<?xml version="1.0" encoding="utf-8"?>
<!-- Generator: Adobe Illustrator 25.0.0, SVG Export Plug-In . SVG Version: 6.00 Build 0)  -->
<svg version="1.1" xmlns="http://www.w3.org/2000/svg" xmlns:xlink="http://www.w3.org/1999/xlink" x="0px" y="0px"
	 viewBox="0 0 300 300" style="enable-background:new 0 0 300 300;" xml:space="preserve">
<style type="text/css">
	.st0{display:none;}
	.st1{display:inline;}
	.st2{fill:#FFFFFF;}
</style>
<g id="Layer_1" class="st0">
	<g class="st1">
		<path class="st2" d="M78.34,150.14c0-17.78-0.11-35.57,0.04-53.35c0.11-12.99,6.77-19.66,19.7-19.69
			c34.97-0.08,69.95-0.07,104.92,0.03c12.97,0.04,19.46,6.7,19.49,19.77c0.08,34.97,0.11,69.95,0.1,104.92
			c0,13.27-6.25,19.74-19.44,19.84c-34.38,0.26-68.75,0.43-103.13,0.49c-15.06,0.03-21.68-6.73-21.7-21.62
			c-0.02-16.8,0-33.59,0-50.39C78.33,150.14,78.33,150.14,78.34,150.14z M150.99,212.58c0-0.01,0-0.02,0-0.03
			c16.98,0,33.96,0.08,50.93-0.03c8.64-0.06,11.66-3.17,11.67-11.93c0.05-33.76,0.04-67.52-0.04-101.28
			c-0.02-9.39-3.48-13.1-12.72-13.14c-33.96-0.15-67.91-0.14-101.87-0.06c-7.64,0.02-11.73,4.19-11.74,11.76
			c-0.06,34.15-0.06,68.31,0.03,102.46c0.03,8.91,3.4,12.19,12.2,12.23C116.64,212.63,133.82,212.58,150.99,212.58z"/>
		<path class="st2" d="M101.53,182.58c2.55-6.24,8.36-7.68,13.45-8.82c12.23-2.72,24.35-1.68,35.6,4.47
			c12.63,6.91,24.94,7.16,37.51-0.47c1.94-1.18,6.82-0.66,8.08,0.89c2.21,2.75-0.51,5.05-3.27,6.87
			c-14.83,9.74-30.27,9.32-45.46,1.85c-12.23-6.01-24.13-8.37-36.65-1.79C106.62,187.78,103.75,187.08,101.53,182.58z"/>
		<path class="st2" d="M101.53,152.94c2.55-6.24,8.36-7.68,13.45-8.82c12.23-2.72,24.35-1.68,35.6,4.47
			c12.63,6.91,24.94,7.16,37.51-0.47c1.94-1.18,6.82-0.66,8.08,0.89c2.21,2.75-0.51,5.05-3.27,6.87
			c-14.83,9.74-30.27,9.32-45.46,1.85c-12.23-6.01-24.13-8.37-36.65-1.79C106.62,158.14,103.75,157.44,101.53,152.94z"/>
		<path class="st2" d="M101.53,123.3c2.55-6.24,8.36-7.68,13.45-8.82c12.23-2.72,24.35-1.68,35.6,4.47
			c12.63,6.91,24.94,7.16,37.51-0.47c1.94-1.18,6.82-0.66,8.08,0.89c2.21,2.75-0.51,5.05-3.27,6.87
			c-14.83,9.74-30.27,9.32-45.46,1.85c-12.23-6.01-24.13-8.37-36.65-1.79C106.62,128.5,103.75,127.8,101.53,123.3z"/>
	</g>
</g>
<g id="Layer_2" class="st0">
	<g class="st1">
		<g>
			<path class="st2" d="M126.48,74.27l2.87,6.52l7.08-0.77c1.17-0.13,1.93,1.2,1.24,2.14l-4.21,5.75l4.21,5.75
				c0.69,0.95-0.07,2.27-1.24,2.14l-7.08-0.77l-2.87,6.52c-0.47,1.08-2,1.08-2.48,0l-2.87-6.52l-7.08,0.77
				c-1.17,0.13-1.93-1.2-1.24-2.14l4.21-5.75l-4.21-5.75c-0.69-0.95,0.07-2.27,1.24-2.14l7.08,0.77l2.87-6.52
				C124.48,73.19,126,73.19,126.48,74.27z"/>
			<path class="st2" d="M139.46,153.79c-3.07-5.4-5.8-10.98-8.09-16.75l-6.82-17.14c-0.13-0.33-0.59-0.33-0.73,0l-6.82,17.14
				c-2.3,5.77-5.03,11.35-8.09,16.75c-1.71,3.01-2.7,6.56-2.7,10.37c0,10.89,8.05,19.72,17.98,19.72s17.98-8.83,17.98-19.72
				C142.16,160.35,141.17,156.8,139.46,153.79z M124.18,175.79c-6.22,0-11.26-5.53-11.26-12.35c0-2.45,0.66-4.73,1.78-6.65
				c2.12-3.62,3.84-7.46,5.39-11.36l3.72-9.36c0.13-0.33,0.59-0.33,0.73,0l3.72,9.36c1.55,3.9,3.26,7.75,5.39,11.36
				c1.13,1.92,1.78,4.2,1.78,6.65C135.44,170.26,130.4,175.79,124.18,175.79z"/>
			<path class="st2" d="M179.37,74.27l2.87,6.52l7.08-0.77c1.17-0.13,1.93,1.2,1.24,2.14l-4.21,5.75l4.21,5.75
				c0.69,0.95-0.07,2.27-1.24,2.14l-7.08-0.77l-2.87,6.52c-0.47,1.08-2,1.08-2.48,0l-2.87-6.52l-7.08,0.77
				c-1.17,0.13-1.93-1.2-1.24-2.14l4.21-5.75l-4.21-5.75c-0.69-0.95,0.07-2.27,1.24-2.14l7.08,0.77l2.87-6.52
				C177.37,73.19,178.89,73.19,179.37,74.27z"/>
			<path class="st2" d="M192.35,153.79c-3.07-5.4-5.8-10.98-8.09-16.75l-6.82-17.14c-0.13-0.33-0.59-0.33-0.73,0l-6.82,17.14
				c-2.3,5.77-5.03,11.35-8.09,16.75c-1.71,3.01-2.7,6.56-2.7,10.37c0,10.89,8.05,19.72,17.98,19.72s17.98-8.83,17.98-19.72
				C195.05,160.35,194.06,156.8,192.35,153.79z M177.07,175.79c-6.22,0-11.26-5.53-11.26-12.35c0-2.45,0.66-4.73,1.78-6.65
				c2.12-3.62,3.84-7.46,5.39-11.36l3.72-9.36c0.13-0.33,0.59-0.33,0.73,0l3.72,9.36c1.55,3.9,3.26,7.75,5.39,11.36
				c1.13,1.92,1.78,4.2,1.78,6.65C188.33,170.26,183.29,175.79,177.07,175.79z"/>
		</g>
		<g>
			<path class="st2" d="M99.63,198.05c0-0.55,0.18-1.01,0.53-1.38c0.35-0.37,0.85-0.55,1.51-0.55c0.65,0,1.16,0.18,1.51,0.55
				c0.36,0.37,0.54,0.83,0.54,1.38c0,0.54-0.18,1-0.54,1.36s-0.86,0.54-1.51,0.54c-0.65,0-1.16-0.18-1.51-0.54
				S99.63,198.59,99.63,198.05z M103.46,218.3h-3.61v-16.07h3.61V218.3z"/>
			<path class="st2" d="M110.74,202.22l0.1,1.86c1.19-1.44,2.75-2.15,4.68-2.15c3.35,0,5.05,1.92,5.11,5.75v10.62h-3.61v-10.41
				c0-1.02-0.22-1.78-0.66-2.27c-0.44-0.49-1.16-0.74-2.16-0.74c-1.46,0-2.54,0.66-3.25,1.98v11.44h-3.61v-16.07H110.74z"/>
			<path class="st2" d="M129.98,213.72l3.4-11.5h3.73l-5.57,16.07h-3.13l-5.62-16.07h3.74L129.98,213.72z"/>
			<path class="st2" d="M146.25,218.59c-2.29,0-4.14-0.72-5.56-2.16c-1.42-1.44-2.13-3.36-2.13-5.76v-0.45c0-1.6,0.31-3.04,0.93-4.3
				c0.62-1.26,1.49-2.25,2.61-2.95s2.37-1.05,3.74-1.05c2.19,0,3.88,0.7,5.07,2.09s1.79,3.37,1.79,5.93v1.46h-10.5
				c0.11,1.33,0.55,2.38,1.33,3.15s1.76,1.16,2.93,1.16c1.65,0,3-0.67,4.04-2.01l1.95,1.86c-0.64,0.96-1.5,1.71-2.58,2.24
				C148.79,218.33,147.59,218.59,146.25,218.59z M145.82,204.82c-0.99,0-1.79,0.35-2.4,1.04s-1,1.66-1.17,2.9h6.88v-0.27
				c-0.08-1.21-0.4-2.12-0.97-2.74S146.82,204.82,145.82,204.82z"/>
			<path class="st2" d="M163.91,205.52c-0.48-0.08-0.97-0.12-1.47-0.12c-1.65,0-2.77,0.63-3.34,1.9v10.99h-3.61v-16.07h3.45
				l0.09,1.8c0.87-1.4,2.08-2.09,3.62-2.09c0.51,0,0.94,0.07,1.28,0.21L163.91,205.52z"/>
			<path class="st2" d="M171.46,198.31v3.91h2.84v2.67h-2.84v8.97c0,0.61,0.12,1.06,0.36,1.33c0.24,0.27,0.68,0.41,1.3,0.41
				c0.42,0,0.84-0.05,1.26-0.15v2.79c-0.82,0.23-1.61,0.34-2.38,0.34c-2.77,0-4.16-1.53-4.16-4.59v-9.11h-2.64v-2.67h2.64v-3.91
				H171.46z"/>
			<path class="st2" d="M184.13,218.59c-2.29,0-4.14-0.72-5.56-2.16c-1.42-1.44-2.13-3.36-2.13-5.76v-0.45c0-1.6,0.31-3.04,0.93-4.3
				c0.62-1.26,1.49-2.25,2.61-2.95s2.37-1.05,3.74-1.05c2.19,0,3.88,0.7,5.07,2.09s1.79,3.37,1.79,5.93v1.46h-10.5
				c0.11,1.33,0.55,2.38,1.33,3.15s1.76,1.16,2.93,1.16c1.65,0,3-0.67,4.04-2.01l1.95,1.86c-0.64,0.96-1.5,1.71-2.58,2.24
				C186.67,218.33,185.47,218.59,184.13,218.59z M183.7,204.82c-0.99,0-1.79,0.35-2.4,1.04s-1,1.66-1.17,2.9h6.88v-0.27
				c-0.08-1.21-0.4-2.12-0.97-2.74S184.7,204.82,183.7,204.82z"/>
			<path class="st2" d="M201.8,205.52c-0.48-0.08-0.97-0.12-1.47-0.12c-1.65,0-2.77,0.63-3.34,1.9v10.99h-3.61v-16.07h3.45l0.09,1.8
				c0.87-1.4,2.08-2.09,3.62-2.09c0.51,0,0.94,0.07,1.28,0.21L201.8,205.52z"/>
		</g>
	</g>
</g>
<g id="Layer_3" class="st0">
	<g class="st1">
		<path class="st2" d="M143.15,138.17c22.31,0,44.61,0,66.92,0c1.28,0,2.75-0.37,3.8,0.12c0.44,0.21,0.86,0.45,1.26,0.72
			c2.23,1.47,2.43,4.85,0.15,6.24c-0.24,0.15-0.49,0.25-0.74,0.3c-3.15,0.62-5.71,1.07-5.9,4.99c-0.21,4.21-0.18,8.21,4.73,9.91
			c12.9,4.47,18.94,18.81,17.85,29.14c-1.41,13.33-11.55,24.28-25,26.07c-11.58,1.54-21.46-2.59-27.76-12.62
			c-2.99-4.75-6.42-6.1-11.61-6.06c-23.58,0.18-47.17,0.04-70.75,0.13c-8.19,0.03-14.2-3.27-17.24-10.95
			c-1.04-2.63-1.38-5.67-1.44-8.54c-0.18-8.59-0.09-17.18-0.06-25.78c0.01-1.93-0.33-3.43-1.26-4.48c-0.71-0.81-0.26-0.64-2.89-1.74
			c-2.16-0.91-3.25-1.38-3.84-2.29c-0.73-1.13-0.98-2.88-0.22-3.96c1.11-1.59,4.08-1.2,4.92-1.2
			C97.45,138.16,119.75,138.17,143.15,138.17z M142.92,145.86c0,0.06,0,0.12,0,0.19c-17.17,0-34.34,0.04-51.5-0.03
			c-4.41-0.02-6.36,2.06-6.38,6.31c-0.04,8.04-0.23,16.08-0.11,24.11c0.14,9.59,3.66,13.17,13.36,13.22
			c22.83,0.12,45.67-0.03,68.5,0.07c4.08,0.02,5.9-1.63,6.49-5.62c1.92-13.03,9.39-21.51,21.93-25.29c4.12-1.24,6.42-3.1,5.69-7.7
			c-0.77-4.85-4.16-5.3-8.11-5.29C176.17,145.89,159.55,145.86,142.92,145.86z M202.51,164.2c-12.69-0.12-23.1,10.06-23.16,22.64
			c-0.06,12.25,10.25,22.95,22.33,23.19c12.2,0.24,23.28-10.46,23.42-22.65C225.26,174.75,215.1,164.32,202.51,164.2z"/>
		<path class="st2" d="M183.19,90.83c0.36,2.48,0.07,5.01-0.84,7.34c-0.96,2.45-2.06,5.16-3.53,7.65c-2.13,3.59-3.15,6.6-1.09,10.69
			c0.2,0.4,0.27,0.87,0.24,1.38c-0.13,2.92-3.58,4.48-5.79,2.58c-0.29-0.25-0.54-0.52-0.74-0.82c-3.5-5.37-3.46-11.21,0.18-16.47
			c3.3-4.76,5.28-9.38,3.51-15.34c-0.1-0.33-0.1-0.69-0.03-1.07c0.48-2.64,3.8-3.63,5.79-1.84c0.44,0.39,0.81,0.82,1.09,1.3
			C182.67,87.45,182.91,88.95,183.19,90.83z"/>
		<path class="st2" d="M151.34,90.83c0.36,2.48,0.07,5.01-0.84,7.34c-0.96,2.45-2.06,5.16-3.53,7.65c-2.13,3.59-3.15,6.6-1.09,10.69
			c0.2,0.4,0.27,0.87,0.24,1.38c-0.13,2.92-3.58,4.48-5.79,2.58c-0.29-0.25-0.54-0.52-0.74-0.82c-3.5-5.37-3.46-11.21,0.18-16.47
			c3.3-4.76,5.28-9.38,3.51-15.34c-0.1-0.33-0.1-0.69-0.03-1.07c0.48-2.64,3.8-3.63,5.79-1.84c0.44,0.39,0.81,0.82,1.09,1.3
			C150.83,87.45,151.07,88.95,151.34,90.83z"/>
		<path class="st2" d="M119.5,90.83c0.36,2.48,0.07,5.01-0.84,7.34c-0.96,2.45-2.06,5.16-3.53,7.65c-2.13,3.59-3.15,6.6-1.09,10.69
			c0.2,0.4,0.27,0.87,0.24,1.38c-0.13,2.92-3.58,4.48-5.79,2.58c-0.29-0.25-0.54-0.52-0.74-0.82c-3.5-5.37-3.46-11.21,0.18-16.47
			c3.3-4.76,5.28-9.38,3.51-15.34c-0.1-0.33-0.1-0.69-0.03-1.07c0.48-2.64,3.8-3.63,5.79-1.84c0.44,0.39,0.81,0.82,1.09,1.3
			C118.98,87.45,119.23,88.95,119.5,90.83z"/>
		<path class="st2" d="M215.58,191.21h-12.54c-2.26,0-4.1-1.84-4.1-4.1v-11.34c0-1.21,0.98-2.2,2.2-2.2c1.21,0,2.2,0.98,2.2,2.2
			v11.05h12.25c1.21,0,2.2,0.98,2.2,2.2S216.79,191.21,215.58,191.21z"/>
	</g>
</g>
<g id="Layer_4" class="st0">
	<g class="st1">
		<g>
			<path class="st2" d="M103.62,200.04c0-0.55,0.18-1.01,0.53-1.38c0.35-0.37,0.85-0.55,1.51-0.55c0.65,0,1.16,0.18,1.51,0.55
				c0.36,0.37,0.54,0.83,0.54,1.38c0,0.54-0.18,1-0.54,1.36s-0.86,0.54-1.51,0.54c-0.65,0-1.16-0.18-1.51-0.54
				S103.62,200.59,103.62,200.04z M107.45,220.29h-3.61v-16.07h3.61V220.29z"/>
			<path class="st2" d="M114.73,204.22l0.1,1.86c1.19-1.44,2.75-2.15,4.68-2.15c3.35,0,5.05,1.92,5.11,5.75v10.62h-3.61v-10.41
				c0-1.02-0.22-1.78-0.66-2.27c-0.44-0.49-1.16-0.74-2.16-0.74c-1.46,0-2.54,0.66-3.25,1.98v11.44h-3.61v-16.07H114.73z"/>
			<path class="st2" d="M133.97,215.72l3.4-11.5h3.73l-5.57,16.07h-3.13l-5.62-16.07h3.74L133.97,215.72z"/>
			<path class="st2" d="M150.24,220.59c-2.29,0-4.14-0.72-5.56-2.16c-1.42-1.44-2.13-3.36-2.13-5.76v-0.45c0-1.6,0.31-3.04,0.93-4.3
				c0.62-1.26,1.49-2.25,2.61-2.95s2.37-1.05,3.74-1.05c2.19,0,3.88,0.7,5.07,2.09s1.79,3.37,1.79,5.93v1.46h-10.5
				c0.11,1.33,0.55,2.38,1.33,3.15s1.76,1.16,2.93,1.16c1.65,0,3-0.67,4.04-2.01l1.95,1.86c-0.64,0.96-1.5,1.71-2.58,2.24
				C152.78,220.32,151.58,220.59,150.24,220.59z M149.81,206.82c-0.99,0-1.79,0.35-2.4,1.04s-1,1.66-1.17,2.9h6.88v-0.27
				c-0.08-1.21-0.4-2.12-0.97-2.74S150.81,206.82,149.81,206.82z"/>
			<path class="st2" d="M167.9,207.51c-0.48-0.08-0.97-0.12-1.47-0.12c-1.65,0-2.77,0.63-3.34,1.9v10.99h-3.61v-16.07h3.45l0.09,1.8
				c0.87-1.4,2.08-2.09,3.62-2.09c0.51,0,0.94,0.07,1.28,0.21L167.9,207.51z"/>
			<path class="st2" d="M175.45,200.31v3.91h2.84v2.67h-2.84v8.97c0,0.61,0.12,1.06,0.36,1.33c0.24,0.27,0.68,0.41,1.3,0.41
				c0.42,0,0.84-0.05,1.26-0.15v2.79c-0.82,0.23-1.61,0.34-2.38,0.34c-2.77,0-4.16-1.53-4.16-4.59v-9.11h-2.64v-2.67h2.64v-3.91
				H175.45z"/>
			<path class="st2" d="M188.12,220.59c-2.29,0-4.14-0.72-5.56-2.16c-1.42-1.44-2.13-3.36-2.13-5.76v-0.45c0-1.6,0.31-3.04,0.93-4.3
				c0.62-1.26,1.49-2.25,2.61-2.95s2.37-1.05,3.74-1.05c2.19,0,3.88,0.7,5.07,2.09s1.79,3.37,1.79,5.93v1.46h-10.5
				c0.11,1.33,0.55,2.38,1.33,3.15s1.76,1.16,2.93,1.16c1.65,0,3-0.67,4.04-2.01l1.95,1.86c-0.64,0.96-1.5,1.71-2.58,2.24
				C190.66,220.32,189.46,220.59,188.12,220.59z M187.69,206.82c-0.99,0-1.79,0.35-2.4,1.04s-1,1.66-1.17,2.9H191v-0.27
				c-0.08-1.21-0.4-2.12-0.97-2.74S188.69,206.82,187.69,206.82z"/>
			<path class="st2" d="M205.79,207.51c-0.48-0.08-0.97-0.12-1.47-0.12c-1.65,0-2.77,0.63-3.34,1.9v10.99h-3.61v-16.07h3.45
				l0.09,1.8c0.87-1.4,2.08-2.09,3.62-2.09c0.51,0,0.94,0.07,1.28,0.21L205.79,207.51z"/>
		</g>
		<g>
			<path class="st2" d="M131.21,162.61c-0.16-0.31-0.3-0.81-0.42-1.5c-1.15,1.2-2.56,1.8-4.22,1.8c-1.62,0-2.93-0.46-3.95-1.38
				c-1.02-0.92-1.53-2.06-1.53-3.42c0-1.71,0.64-3.03,1.91-3.94s3.09-1.38,5.46-1.38h2.21v-1.05c0-0.83-0.23-1.5-0.7-2
				s-1.17-0.75-2.12-0.75c-0.82,0-1.5,0.21-2.02,0.62c-0.53,0.41-0.79,0.93-0.79,1.57h-3.61c0-0.88,0.29-1.71,0.88-2.47
				c0.58-0.77,1.38-1.37,2.38-1.8s2.13-0.65,3.37-0.65c1.88,0,3.38,0.47,4.5,1.42c1.12,0.95,1.69,2.28,1.72,3.99v7.25
				c0,1.45,0.2,2.6,0.61,3.46v0.25H131.21z M127.24,160.01c0.71,0,1.38-0.17,2.01-0.52s1.1-0.81,1.42-1.4v-3.03h-1.95
				c-1.34,0-2.34,0.23-3.02,0.7s-1.01,1.12-1.01,1.98c0,0.69,0.23,1.25,0.69,1.66C125.86,159.8,126.47,160.01,127.24,160.01z"/>
			<path class="st2" d="M147.81,161.03c-1.06,1.25-2.57,1.87-4.52,1.87c-1.74,0-3.06-0.51-3.96-1.53c-0.9-1.02-1.34-2.5-1.34-4.43
				v-10.41h3.61v10.37c0,2.04,0.85,3.06,2.54,3.06c1.75,0,2.94-0.63,3.55-1.89v-11.54h3.61v16.07h-3.4L147.81,161.03z"/>
			<path class="st2" d="M159.5,142.63v3.91h2.84v2.67h-2.84v8.97c0,0.61,0.12,1.06,0.36,1.33c0.24,0.27,0.68,0.41,1.3,0.41
				c0.42,0,0.84-0.05,1.26-0.15v2.79c-0.82,0.23-1.61,0.34-2.38,0.34c-2.77,0-4.16-1.53-4.16-4.59v-9.11h-2.64v-2.67h2.64v-3.91
				H159.5z"/>
			<path class="st2" d="M163.97,154.42c0-1.58,0.31-2.99,0.94-4.26s1.5-2.23,2.63-2.91s2.43-1.02,3.89-1.02
				c2.17,0,3.93,0.7,5.28,2.09c1.35,1.4,2.08,3.25,2.19,5.56l0.02,0.85c0,1.58-0.3,3-0.91,4.25s-1.48,2.21-2.61,2.9
				c-1.13,0.68-2.44,1.02-3.93,1.02c-2.27,0-4.08-0.75-5.44-2.27c-1.36-1.51-2.04-3.52-2.04-6.04V154.42z M167.58,154.74
				c0,1.65,0.34,2.95,1.03,3.88c0.68,0.94,1.63,1.4,2.85,1.4s2.17-0.48,2.84-1.43c0.68-0.95,1.02-2.34,1.02-4.17
				c0-1.62-0.35-2.91-1.05-3.86c-0.7-0.95-1.65-1.43-2.84-1.43c-1.18,0-2.12,0.47-2.81,1.4
				C167.92,151.47,167.58,152.87,167.58,154.74z"/>
		</g>
		<g>
			<path class="st2" d="M212.05,137.14c-6.02-3.69-13.96,0.66-14.05,7.64c-0.11,7.81,0.05,15.62-0.09,23.42
				c-0.11,6.09-2.72,8.93-8.76,8.95c-13.05,0.05-26.11,0.08-39.16,0.09c-13.05-0.01-26.11-0.04-39.16-0.09
				c-6.04-0.02-8.65-2.85-8.76-8.95c-0.14-7.81,0.02-15.62-0.09-23.42c-0.09-6.98-8.03-11.32-14.05-7.64
				c-0.84,0.51-1.69,2.19-1.46,3.04c0.36,1.29,1.54,3.16,2.58,3.31c5.25,0.71,5.99,4.09,5.9,8.43c-0.12,5.67-0.19,11.35,0.06,17.02
				c0.45,10.08,5.76,15.16,15.82,15.22c13.04,0.09,26.1,0.04,39.15,0.03c13.05,0,26.11,0.06,39.15-0.03
				c10.06-0.06,15.37-5.14,15.82-15.22c0.26-5.67,0.18-11.35,0.06-17.02c-0.09-4.34,0.65-7.71,5.9-8.43
				c1.03-0.15,2.22-2.02,2.58-3.31C213.74,139.33,212.89,137.65,212.05,137.14z"/>
			<path class="st2" d="M139.38,88.02c4.2-11.16,49.2-17.75,57.55,21.21c0.01,0.05,0.03,0.1,0.05,0.14
				c0.64,1.19,0.58,2.44,0.07,3.47c-1.38,2.8-5.59,2.29-6.52-0.69c-7.29-23.38-23.25-31.92-46.51-20.24
				C141.41,93.23,138.35,90.75,139.38,88.02z"/>
			<path class="st2" d="M126.37,104.4c-7.19-0.16-11.2,3.49-14.66,10.96c-2.02,3.12-6.99,1-6.36-2.63
				c3.33-21.01,39.36-20.11,41.65,0.91c0.22,3.47-4.73,5.09-6.45,2.03C137.61,108.22,133.42,104.38,126.37,104.4z"/>
		</g>
	</g>
</g>
<g id="Layer_5" class="st0">
	<g class="st1">
		<g>
			<line class="st2" x1="150" y1="88.33" x2="150" y2="211.68"/>
			<path class="st2" d="M150,216.11c-2.45,0-4.44-1.99-4.44-4.44V88.32c0-2.45,1.99-4.44,4.44-4.44s4.44,1.99,4.44,4.44v123.35
				C154.44,214.13,152.45,216.11,150,216.11z"/>
		</g>
		<g>
			<line class="st2" x1="211.68" y1="150" x2="88.32" y2="150"/>
			<path class="st2" d="M211.68,154.44H88.32c-2.45,0-4.44-1.99-4.44-4.44s1.99-4.44,4.44-4.44h123.35c2.45,0,4.44,1.99,4.44,4.44
				S214.13,154.44,211.68,154.44z"/>
		</g>
	</g>
</g>
<g id="Layer_6">
	<g>
		<line class="st2" x1="211.68" y1="150" x2="88.32" y2="150"/>
		<path class="st2" d="M211.68,154.44H88.32c-2.45,0-4.44-1.99-4.44-4.44s1.99-4.44,4.44-4.44h123.35c2.45,0,4.44,1.99,4.44,4.44
			S214.13,154.44,211.68,154.44z"/>
	</g>
</g>
<g id="Layer_7" class="st0">
	<g class="st1">
		<path class="st2" d="M150,270.99c-32.32,0-62.7-12.58-85.55-35.44C41.6,212.7,29.01,182.32,29.01,150S41.6,87.3,64.45,64.45
			C87.3,41.6,117.68,29.01,150,29.01c32.32,0,62.7,12.58,85.55,35.44c22.85,22.85,35.44,53.23,35.44,85.55s-12.58,62.7-35.44,85.55
			C212.7,258.4,182.32,270.99,150,270.99z M150,36.36C87.34,36.36,36.36,87.34,36.36,150S87.34,263.64,150,263.64
			c62.66,0,113.64-50.98,113.64-113.64S212.66,36.36,150,36.36z"/>
		<path class="st2" d="M117.06,206.9c-0.65,0-1.3-0.16-1.89-0.48c-1.28-0.69-2.08-2.03-2.08-3.49V97.06c0-1.43,0.77-2.75,2.01-3.45
			c1.24-0.7,2.77-0.68,3.99,0.05l84.51,50.6c1.18,0.71,1.9,1.94,1.92,3.32c0.03,1.37-0.64,2.64-1.79,3.39l-84.5,55.28
			C118.57,206.68,117.81,206.9,117.06,206.9z M120.44,103.04v93.64l74.73-48.89L120.44,103.04z M199.71,144.82
			C199.71,144.82,199.71,144.82,199.71,144.82L199.71,144.82z M115.31,99.97C115.31,99.97,115.31,99.97,115.31,99.97L115.31,99.97z"
			/>
	</g>
</g>
<g id="Layer_8" class="st0">
	<g class="st1">
		<path class="st2" d="M150,270.99c-32.32,0-62.7-12.58-85.55-35.44C41.6,212.7,29.01,182.32,29.01,150S41.6,87.3,64.45,64.45
			C87.3,41.6,117.68,29.01,150,29.01s62.7,12.58,85.55,35.44c22.85,22.85,35.44,53.23,35.44,85.55s-12.58,62.7-35.44,85.55
			C212.7,258.4,182.32,270.99,150,270.99z M150,36.36C87.34,36.36,36.36,87.34,36.36,150S87.34,263.64,150,263.64
			S263.64,212.66,263.64,150S212.66,36.36,150,36.36z"/>
		<path class="st2" d="M199.71,207.09h-99.42c-4.07,0-7.38-3.31-7.38-7.38v-99.42c0-4.07,3.31-7.38,7.38-7.38h99.42
			c4.07,0,7.38,3.31,7.38,7.38v99.42C207.09,203.78,203.78,207.09,199.71,207.09z M100.29,100.26l-0.03,99.45l99.45,0.03
			c0.02,0,0.03-0.01,0.03-0.03v-99.42L100.29,100.26z"/>
	</g>
</g>
<g id="Layer_9" class="st0">
	<g class="st1">
		<path class="st2" d="M196.23,105.73H104.6c-1.11,0-2.1-0.66-2.52-1.69c-0.42-1.03-0.18-2.19,0.62-2.97
			c12.83-12.52,29.78-19.41,47.71-19.41s34.88,6.89,47.71,19.41c0.79,0.77,1.04,1.94,0.62,2.97
			C198.33,105.06,197.34,105.73,196.23,105.73z M109.91,100.98h81.02C167.62,81.75,133.21,81.75,109.91,100.98z"/>
		<path class="st2" d="M216.04,152.38h-64.81c-1.1,0-2.09-0.66-2.51-1.68c-0.42-1.02-0.19-2.18,0.59-2.96l45.83-45.83
			c0.51-0.51,1.2-0.8,1.92-0.8c0,0,0,0,0.01,0c0.73,0,1.41,0.29,1.92,0.8c12.66,12.79,19.68,29.73,19.77,47.72
			c0,0.73-0.28,1.41-0.79,1.93C217.46,152.09,216.77,152.38,216.04,152.38z M214.01,149.67
			C214.01,149.67,214.01,149.67,214.01,149.67L214.01,149.67C214.01,149.67,214.01,149.67,214.01,149.67z M156.15,147.63h57.82
			c-0.56-15.3-6.52-29.67-16.93-40.88L156.15,147.63z"/>
		<path class="st2" d="M150.42,218.35c-17.94,0-34.88-6.89-47.71-19.41c-0.79-0.78-1.04-1.94-0.62-2.97
			c0.42-1.03,1.41-1.69,2.52-1.69h91.63c1.11,0,2.1,0.66,2.52,1.69c0.42,1.03,0.18,2.19-0.62,2.97
			C185.3,211.45,168.35,218.35,150.42,218.35z M109.91,199.02c23.31,19.23,57.71,19.23,81.02,0H109.91z"/>
		<path class="st2" d="M103.77,198.88C103.77,198.88,103.76,198.88,103.77,198.88c-0.73,0-1.42-0.29-1.93-0.8
			c-12.65-12.78-19.67-29.73-19.77-47.72v0c0-0.73,0.28-1.41,0.79-1.93c0.51-0.52,1.2-0.8,1.93-0.8h64.81c1.1,0,2.09,0.66,2.51,1.68
			c0.42,1.02,0.19,2.18-0.59,2.96l-45.83,45.83C105.18,198.6,104.49,198.88,103.77,198.88z M102.33,194.73
			C102.33,194.73,102.33,194.73,102.33,194.73L102.33,194.73z M86.86,152.38c0.56,15.3,6.52,29.67,16.93,40.88l40.88-40.88H86.86z
			 M86.82,150.33L86.82,150.33C86.82,150.33,86.82,150.33,86.82,150.33C86.82,150.33,86.82,150.33,86.82,150.33z"/>
	</g>
</g>
</svg>
